<svg id="Layer_1" data-name="Layer 1" xmlns="http://www.w3.org/2000/svg" viewBox="0 0 584.05 584.14">
  <title>dw-rassilon1</title>
  <g>
    <path d="M589,315.71V589.07H5V4.93H278.25c-1.41.3-2.82,0.7-4.25,0.9-10.7,1.46-21.52,2.31-32.09,4.4-161.74,32-264.85,191-227.9,351.2,41.13,178.35,235.51,275.9,402.36,200.34,94-42.58,150-116.72,168.82-218.43C586.89,334.21,587.77,324.92,589,315.71Z" transform="translate(-4.97 -4.93)" fill="none"/>
    <path d="M317.59,4.93H589V276.37a33.46,33.46,0,0,1-.89-4.27c-2.56-32.28-9.86-63.47-23.49-92.82C520.8,84.9,447.68,27.82,345.21,8.76,336.09,7.06,326.8,6.19,317.59,4.93Z" transform="translate(-4.97 -4.93)" fill="none"/>
    <path d="M317.59,4.93c9.21,1.26,18.49,2.13,27.62,3.83C447.68,27.82,520.8,84.9,564.65,179.28c13.64,29.35,20.93,60.54,23.49,92.82a33.46,33.46,0,0,0,.89,4.27v39.34c-1.26,9.22-2.14,18.5-3.83,27.64C566.35,445,510.4,519.19,416.38,561.77,249.53,637.34,55.15,539.78,14,361.43c-37-160.21,66.16-319.2,227.9-351.2,10.57-2.09,21.39-2.94,32.09-4.4,1.43-.2,2.83-0.59,4.25-0.9h39.34ZM297.87,585.34c159.91,0,289.1-129,289.36-289S458.06,6.8,298,6.73C138.17,6.66,8.81,135.86,8.62,295.73S137.87,585.35,297.87,585.34Z" transform="translate(-4.97 -4.93)" fill="none"/>
    <path d="M297.87,585.34c-160,0-289.44-129.59-289.25-289.61S138.17,6.66,298,6.73C458.06,6.8,587.49,136.39,587.23,296.34S457.77,585.33,297.87,585.34Zm0-20.25C446.23,565.19,566.56,445,567,296.21,567.38,148.09,446.87,27.37,298.22,27c-148.4-.38-269.48,120.6-269.34,269.12S149.35,565,297.87,565.09Z" transform="translate(-4.97 -4.93)" fill="none"/>
    <path d="M297.87,565.09c-148.52-.1-268.86-120.43-269-269S149.82,26.61,298.22,27C446.87,27.37,567.38,148.09,567,296.21,566.56,445,446.23,565.19,297.87,565.09ZM261.76,279.15c-13.53-11.56-26.91-22.39-39.63-34-62.81-57.1-43.5-159.36,35.75-189.53,7.94-3,16.36-4.8,24.07-7C153.36,56,44.07,166.37,50.37,307.08c6.19,138.25,119.12,231.17,232.45,236.19-2.25-.53-4.13-1.07-6.05-1.41-49.61-8.92-88.9-52.8-91.76-103-2.21-38.75,11.77-70.77,41.31-95.94q32.18-27.42,64.46-54.72c1.08-.92,2.09-1.93,3.42-3.18l-16.37-13.79c-24,20.37-48.31,39.63-71,60.67-34.41,31.94-48.41,72-41.77,118.64,1.69,11.84,5.69,23.34,8.48,34.39-31.67-15.1-80.35-87-77.77-116,2,0.8,4,1.63,5.94,2.35,19.73,7.15,39.17,6.91,58.11-2.61,21.52-10.82,33.52-34.22,29-56.06C185.6,297.2,172.7,284,159.06,282.08c-4.13-.59-6.44.25-6.77,5.11a21.73,21.73,0,0,1-16,19.67c-12.17,3.48-23.23.93-31-9.08a78.41,78.41,0,0,1-12.64-23c-7.74-23.57-5.4-47.25,2.3-70.45,10.78-32.49,31-58.53,56.57-80.64,7.19-6.21,14.93-11.77,22.42-17.64-7.7,20.72-11.64,41.44-10.43,63s7.55,41.86,18.69,61.35c-4.73-.74-8.43-1.35-12.14-1.88-23-3.28-46.06,8.22-56.16,28-7.09,13.87-4.34,30.94,6.54,40.64a15.93,15.93,0,0,0,17.83,2.43,13.54,13.54,0,0,0,7.16-13.95c-0.69-5.11-3.25-7.45-8.32-6.59-3.92.67-5-1.26-5.54-4.33-1-5.85,1.58-10.57,5.23-14.76,9.42-10.81,21.71-11.93,34.69-9.64,22,3.87,40.12,15.43,57.15,29.07,5.57,4.46,11,9.11,16.46,13.69Zm51,264.29C440,536.5,549.8,428.69,545.62,288.56,541.53,151.62,430.79,54.42,312.47,48.73c2.87,0.64,4.92,1.14,7,1.55,25.11,5,46.47,17,63.28,36.13,41.81,47.64,37.05,118.31-10.52,160.41-12,10.64-24.45,20.82-36.7,31.2l-34,28.81,16.4,13.93c0.79-.54,1.37-0.86,1.86-1.27,23-19.53,46.71-38.24,68.72-58.79,37.71-35.23,51-78.91,40.39-129.53-1.75-8.35-4.86-16.41-7.6-25.45,41,29.78,68.79,67.48,79.87,117.77-2.93-1.13-4.86-1.9-6.81-2.62-19.88-7.31-39.49-7-58.55,2.62-21.48,10.88-33.37,34.41-28.71,56.2,3.3,15.42,16.36,28.59,30,30.34,3.91,0.5,6.13-.31,6.49-4.9,0.9-11.38,9.24-19.51,20.57-21,10.6-1.36,19.72,1.7,26.36,9.9a72.53,72.53,0,0,1,10.91,17.89c8.13,19.94,8,40.63,3.45,61.34-7.2,33.07-24.58,60.48-48.5,83.81-10.71,10.44-22.61,19.66-34,29.43l-1.42-1.18a135.11,135.11,0,0,0,11.42-62.13c-1.19-21.75-7.46-42.06-18.72-61.52,2.24,0.29,3.67.6,5.11,0.64,8.46,0.24,17,1.47,25.35.42,19.71-2.47,37.51-18.71,41.1-36.68,2.42-12.11-.94-22.76-10-31.31a15.48,15.48,0,0,0-17.83-2.22,13.54,13.54,0,0,0-7,14.05c0.71,4.68,3.17,6.83,7.55,6.61,5-.25,6.67,1.21,6.49,6.26-0.28,7.73-4.84,13-10.66,17.37-8.85,6.61-19,6.64-29.19,4.93-19.93-3.34-36.78-13.33-52.57-25.32-7.28-5.53-14.16-11.59-21.38-17.54l-16.69,14c13.54,11.44,27,22,39.48,33.51,31.63,29.29,43.91,65.76,35,107.77-9,42.25-35.53,70.2-76.37,84.3C325.95,540.62,319.51,541.74,312.74,543.44ZM298,170.08c-3.1,5-6.8,6.35-11.42,5.47-5.3-1-8.59-4.48-10.7-9.23a25.92,25.92,0,0,1,17.31-35.38c13.06-3.3,25.21-.79,35,8.87,10.51,10.35,14.9,23.36,14.25,37.94-1,22.07-10.89,40.53-24.43,57.27-4.8,5.94-10.28,11.33-15.62,17.16l15.53,13.34c15.1-13,30.45-25.34,44.71-38.81,16.46-15.54,25.14-35.23,27-57.88,5.12-63.06-54-113-114.83-96.33C239,82.27,216,105.87,208.14,142.12c-7.76,35.84,3.55,66.3,31.16,90.44,14.8,12.94,30,25.48,45,38.2,8.7,7.38,17.42,14.74,26.31,22.27L327,278.92c-2.22-1.93-3.93-3.44-5.67-4.91q-33.75-28.62-67.49-57.24c-20.52-17.48-29.48-39.52-25.8-66.44,4.81-35.18,39.4-62.77,74.55-59.46,35.58,3.35,61.18,28,65.65,63.46a61.44,61.44,0,0,1-5.06,33.22,47.66,47.66,0,0,1-.34-6.81c0-2.46.1-4.93-.07-7.37-1.9-26.66-13.51-47.52-37.85-59.56-18.32-9.06-36.9-7.48-53.55,4.36-15.89,11.3-21.06,27.79-18.74,46.77,2.68,21.94,19.49,34.91,40.92,31.77,21.09-3.09,32.64-28,21.39-46.12-4.53-7.29-12-10.19-20.38-7.86a17.6,17.6,0,0,0-12.73,16.8C281.76,169,288,173.56,298,170.08ZM277.71,326.86c-13.52,11.45-26.81,22.35-39.71,33.7-23.44,20.64-34.1,46.72-31.72,77.9,4.17,54.69,57.13,94.28,110.44,82.17,36.62-8.32,60.94-31,70.19-67.29,9.36-36.69-1.44-68.4-30-93.39C334.2,340.1,311,320.88,288,301.41c-1-.81-2-1.44-3.15-2.2L268.5,313.07c1.37,1.2,2.21,2,3.08,2.7,23.79,20.08,47.8,39.91,71.31,60.31,23.27,20.2,31.52,45.89,22.41,75.3-9,29.14-30,45.73-60.46,49.51-43.22,5.37-82.41-33.66-77.33-77,0.77-6.59,2.68-13.05,4.06-19.57l1.4,0.29c0,5.73-.47,11.5.08,17.17,2.43,25.27,14.19,44.82,37.07,56.47,31.36,16,76.52-2.73,73.1-48.53-1.68-22.51-18.08-36.72-39.77-34.43-26.34,2.78-31.69,30.68-23.39,45.43,3.71,6.6,9.33,10.14,17,9.45s13.2-4.63,15.75-12.11c1.74-5.09,1.6-10.09-2-14.38-3.44-4.05-7.89-3.61-12.7-2.45,1.86-1.88,3.8-3.65,6.07-4.33,6-1.8,12.21,1.79,15.36,8.48,6.66,14.13-1.19,31.13-16.55,35.83-13.41,4.1-29.26-.54-38.26-11.6s-13.11-24.17-11.37-38.5c3.22-26.58,16.13-48.06,35.66-65.88,1.64-1.5,3.37-2.9,5.35-4.59Z" transform="translate(-4.97 -4.93)"/>
    <path d="M261.76,279.15l-16.65,14c-5.49-4.57-10.89-9.23-16.46-13.69-17-13.64-35.19-25.2-57.15-29.07-13-2.29-25.28-1.17-34.69,9.64-3.65,4.19-6.19,8.91-5.23,14.76,0.5,3.07,1.62,5,5.54,4.33,5.06-.86,7.63,1.48,8.32,6.59a13.54,13.54,0,0,1-7.16,13.95,15.93,15.93,0,0,1-17.83-2.43c-10.88-9.7-13.63-26.77-6.54-40.64,10.1-19.76,33.16-31.25,56.16-28,3.71,0.53,7.4,1.15,12.14,1.88-11.14-19.49-17.47-39.7-18.69-61.35s2.73-42.32,10.43-63c-7.49,5.86-15.23,11.43-22.42,17.64-25.61,22.11-45.79,48.15-56.57,80.64-7.7,23.21-10,46.88-2.3,70.45a78.41,78.41,0,0,0,12.64,23c7.76,10,18.83,12.56,31,9.08a21.73,21.73,0,0,0,16-19.67c0.33-4.86,2.63-5.7,6.77-5.11,13.64,1.93,26.54,15.12,29.76,30.56,4.54,21.84-7.46,45.24-29,56.06-18.93,9.52-38.38,9.76-58.11,2.61-2-.72-3.93-1.55-5.94-2.35-2.58,29,46.1,100.88,77.77,116-2.78-11-6.79-22.55-8.48-34.39-6.64-46.62,7.36-86.71,41.77-118.64,22.67-21,47-40.3,71-60.67L294.2,285c-1.33,1.24-2.34,2.25-3.42,3.18q-32.23,27.36-64.46,54.72c-29.54,25.17-43.52,57.19-41.31,95.94,2.86,50.19,42.16,94.07,91.76,103,1.92,0.34,3.8.88,6.05,1.41-113.32-5-226.26-97.94-232.45-236.19C44.07,166.37,153.36,56,282,48.65c-7.71,2.22-16.13,4-24.07,7C178.63,85.84,159.33,188.1,222.13,245.2,234.85,256.76,248.23,267.59,261.76,279.15Z" transform="translate(-4.97 -4.93)" fill="none"/>
    <path d="M312.74,543.44c6.77-1.7,13.21-2.82,19.3-4.93,40.84-14.1,67.38-42.05,76.37-84.3,8.95-42-3.34-78.48-35-107.77C361,334.88,347.52,324.37,334,312.93l16.69-14c7.22,6,14.1,12,21.38,17.54,15.78,12,32.64,22,52.57,25.32,10.2,1.71,20.34,1.68,29.19-4.93,5.82-4.35,10.38-9.64,10.66-17.37,0.18-5-1.5-6.51-6.49-6.26-4.38.22-6.84-1.93-7.55-6.61a13.54,13.54,0,0,1,7-14.05,15.48,15.48,0,0,1,17.83,2.22c9,8.55,12.39,19.2,10,31.31-3.59,18-21.39,34.21-41.1,36.68-8.3,1-16.89-.18-25.35-0.42-1.44,0-2.86-.35-5.11-0.64,11.27,19.46,17.54,39.77,18.72,61.52a135.11,135.11,0,0,1-11.42,62.13l1.42,1.18c11.36-9.77,23.26-19,34-29.43,23.91-23.33,41.3-50.73,48.5-83.81,4.51-20.71,4.68-41.41-3.45-61.34a72.53,72.53,0,0,0-10.91-17.89c-6.64-8.2-15.76-11.26-26.36-9.9-11.33,1.45-19.67,9.59-20.57,21-0.36,4.59-2.58,5.41-6.49,4.9-13.6-1.75-26.67-14.93-30-30.34-4.66-21.79,7.24-45.32,28.71-56.2,19.06-9.66,38.67-9.94,58.55-2.62,1.95,0.72,3.88,1.49,6.81,2.62-11.07-50.28-38.87-88-79.87-117.77,2.74,9,5.85,17.1,7.6,25.45,10.64,50.62-2.67,94.31-40.39,129.53-22,20.56-45.75,39.26-68.72,58.79-0.49.42-1.07,0.74-1.86,1.27l-16.4-13.93,34-28.81c12.25-10.38,24.68-20.56,36.7-31.2,47.57-42.1,52.33-112.77,10.52-160.41-16.81-19.16-38.17-31.12-63.28-36.13-2.07-.41-4.12-0.91-7-1.55,118.32,5.7,229.06,102.89,233.15,239.83C549.8,428.69,440,536.5,312.74,543.44Z" transform="translate(-4.97 -4.93)" fill="none"/>
    <path d="M298,170.08c-10,3.48-16.23-1-16.11-10.56a17.6,17.6,0,0,1,12.73-16.8c8.35-2.32,15.85.57,20.38,7.86,11.26,18.12-.3,43-21.39,46.12-21.43,3.14-38.24-9.83-40.92-31.77-2.32-19,2.85-35.47,18.74-46.77,16.65-11.83,35.23-13.41,53.55-4.36,24.35,12,36,32.9,37.85,59.56,0.17,2.45.06,4.92,0.07,7.37a47.66,47.66,0,0,0,.34,6.81,61.44,61.44,0,0,0,5.06-33.22c-4.47-35.49-30.07-60.11-65.65-63.46-35.16-3.31-69.74,24.28-74.55,59.46-3.68,26.91,5.27,49,25.8,66.44q33.69,28.69,67.49,57.24c1.74,1.48,3.45,3,5.67,4.91L310.58,293c-8.9-7.53-17.61-14.89-26.31-22.27-15-12.72-30.16-25.25-45-38.2-27.61-24.14-38.92-54.59-31.16-90.44C216,105.87,239,82.27,274.81,72.49c60.86-16.62,120,33.27,114.83,96.33-1.84,22.65-10.52,42.34-27,57.88-14.26,13.47-29.61,25.79-44.71,38.81l-15.53-13.34C307.75,246.35,313.23,241,318,235c13.54-16.74,23.43-35.2,24.43-57.27,0.66-14.58-3.74-27.59-14.25-37.94-9.81-9.67-22-12.17-35-8.87a25.92,25.92,0,0,0-17.31,35.38c2.11,4.75,5.4,8.22,10.7,9.23C291.19,176.43,294.89,175,298,170.08Z" transform="translate(-4.97 -4.93)" fill="none"/>
    <path d="M277.71,326.86l16.61,13.8c-2,1.7-3.71,3.1-5.35,4.59-19.54,17.82-32.44,39.31-35.66,65.88-1.74,14.33,2.27,27.31,11.37,38.5s24.85,15.7,38.26,11.6c15.36-4.7,23.21-21.7,16.55-35.83-3.16-6.69-9.32-10.28-15.36-8.48-2.27.68-4.22,2.45-6.07,4.33,4.81-1.16,9.27-1.6,12.7,2.45,3.63,4.28,3.77,9.29,2,14.38-2.56,7.48-8.1,11.42-15.75,12.11s-13.24-2.85-17-9.45c-8.3-14.75-3-42.65,23.39-45.43,21.7-2.29,38.09,11.92,39.77,34.43,3.42,45.79-41.74,64.49-73.1,48.53-22.89-11.65-34.64-31.2-37.07-56.47-0.55-5.67-.08-11.44-0.08-17.17l-1.4-.29c-1.38,6.52-3.29,13-4.06,19.57-5.08,43.32,34.1,82.35,77.33,77,30.44-3.78,51.44-20.36,60.46-49.51,9.11-29.41.87-55.11-22.41-75.3-23.51-20.4-47.52-40.23-71.31-60.31-0.87-.73-1.71-1.5-3.08-2.7l16.31-13.86c1.1,0.76,2.19,1.4,3.15,2.2,23,19.48,46.25,38.7,68.94,58.54,28.58,25,39.37,56.7,30,93.39-9.25,36.27-33.57,59-70.19,67.29-53.32,12.12-106.27-27.47-110.44-82.17-2.38-31.17,8.28-57.25,31.72-77.9C250.9,349.21,264.2,338.31,277.71,326.86Z" transform="translate(-4.97 -4.93)" fill="none"/>
  </g>
</svg>
